<svg xmlns="http://www.w3.org/2000/svg" width="14" height="14" viewBox="0 0 14 14">
  <g fill="none" fill-rule="evenodd" class="page-1">
    <g fill="#000" fill-rule="nonzero" class="add">
      <path d="M7 0a7 7 0 1 0 0 14A7 7 0 0 0 7 0zm0 1a6 6 0 1 1 0 12A6 6 0 0 1 7 1z" class="vector"/>
      <path d="M7 3.5a.5.5 0 0 1 .492.41L7.5 4v6a.5.5 0 0 1-.992.09L6.5 10V4a.5.5 0 0 1 .5-.5z" class="vector-2"/>
      <path d="M10 6.5a.5.5 0 0 1 .09.992L10 7.5H4a.5.5 0 0 1-.09-.992L4 6.5h6z" class="vector-3"/>
    </g>
  </g>
</svg>
