<svg xmlns="http://www.w3.org/2000/svg" width="14" height="14" viewBox="0 0 14 14">
  <g fill="none" fill-rule="evenodd" class="page-1">
    <g class="arrow" transform="rotate(90 7 7)">
      <rect width="14" height="14" class="rectangle"/>
      <path fill="#000" fill-rule="nonzero" d="M7.26 0c.254 0 .466.177.51.41l.008.09v13a.51.51 0 0 1-.519.5.514.514 0 0 1-.51-.41l-.008-.09V.5c0-.276.232-.5.518-.5z" class="vector"/>
      <path fill="#000" fill-rule="nonzero" d="M6.893.146A.533.533 0 0 1 7.554.09l.072.057 3.63 3.5a.487.487 0 0 1 0 .708.533.533 0 0 1-.662.057l-.072-.057L7.26 1.207 3.996 4.354a.533.533 0 0 1-.661.057l-.072-.057a.487.487 0 0 1-.06-.638l.06-.07 3.63-3.5z" class="vector-2"/>
    </g>
  </g>
</svg>
