<svg xmlns="http://www.w3.org/2000/svg" width="14" height="14" viewBox="0 0 14 14">
  <g fill="none" fill-rule="evenodd" class="page-1">
    <g fill="#000" fill-rule="nonzero" class="check">
      <path d="M2.05 2.05a7 7 0 1 0 9.9 9.9 7 7 0 0 0-9.9-9.9zm.707.707a6 6 0 1 1 8.486 8.486 6 6 0 0 1-8.486-8.486z" class="shape"/>
      <path d="M5.312 9.464l-1.327-1.72-.048-.054a.554.554 0 0 0-.726-.044.554.554 0 0 0-.096.773l1.365 1.77.051.061a1.046 1.046 0 0 0 1.587-.032l4.357-5.315.041-.06a.56.56 0 0 0-.115-.716.549.549 0 0 0-.776.074L5.312 9.464z" class="vector"/>
    </g>
  </g>
</svg>
