<svg xmlns="http://www.w3.org/2000/svg" width="14" height="14" viewBox="0 0 14 14">
  <g fill="none" fill-rule="evenodd" class="page-1">
    <g fill="#000" fill-rule="nonzero" class="check2">
      <path d="M13.115.214c.175-.25.49-.286.703-.08.19.185.234.498.118.741l-.05.088-8.712 12.402a1.558 1.558 0 0 1-.524.473 1.31 1.31 0 0 1-.646.162 1.323 1.323 0 0 1-.652-.186 1.55 1.55 0 0 1-.43-.38l-.087-.12-2.73-4.13c-.17-.256-.13-.625.088-.825a.444.444 0 0 1 .64.026l.062.077 2.731 4.132a.52.52 0 0 0 .173.167.438.438 0 0 0 .432.008.503.503 0 0 0 .123-.094l.05-.062 8.71-12.4z" class="vector"/>
    </g>
  </g>
</svg>
