<svg xmlns="http://www.w3.org/2000/svg" width="14" height="14" viewBox="0 0 14 14">
  <g fill="none" fill-rule="evenodd" class="page-1">
    <g fill="#000" fill-rule="nonzero" class="extlink">
      <path d="M6 0a.5.5 0 0 1 .09.992L6 1H1.5a.5.5 0 0 0-.494.421L1 1.5v11a.5.5 0 0 0 .421.494L1.5 13h11a.5.5 0 0 0 .494-.421L13 12.5V8a.5.5 0 0 1 .992-.09L14 8v4.5a1.5 1.5 0 0 1-1.352 1.493L12.5 14h-11a1.5 1.5 0 0 1-1.493-1.352L0 12.5v-11A1.5 1.5 0 0 1 1.352.007L1.5 0H6z" class="vector"/>
      <path d="M13.5 0a.5.5 0 0 1 .492.41L14 .5V4a.5.5 0 0 1-.992.09L13 4V1h-3a.5.5 0 0 1-.492-.41L9.5.5a.5.5 0 0 1 .41-.492L10 0h3.5z" class="vector-2"/>
      <path d="M13.146.146a.5.5 0 0 1 .765.638l-.057.07-6.5 6.5a.5.5 0 0 1-.765-.638l.057-.07 6.5-6.5z" class="vector-3"/>
    </g>
  </g>
</svg>
