<svg xmlns="http://www.w3.org/2000/svg" width="14" height="14" viewBox="0 0 14 14">
  <g fill="none" fill-rule="evenodd" class="page-1">
    <g fill="#000" fill-rule="nonzero" class="help">
      <path d="M7 0a7 7 0 1 0 0 14A7 7 0 0 0 7 0zm0 1a6 6 0 1 1 0 12A6 6 0 0 1 7 1z" class="vector"/>
      <path d="M6.14 3.17a2.253 2.253 0 0 1 3.07 1.64 2.248 2.248 0 0 1-1.646 2.618l-.063.013v.725a.5.5 0 0 1-.41.492l-.09.008a.5.5 0 0 1-.491-.41l-.008-.09V7a.5.5 0 0 1 .5-.5 1.253 1.253 0 0 0 1.227-1.494 1.25 1.25 0 0 0-1.707-.911A1.251 1.251 0 0 0 5.75 5.25a.5.5 0 0 1-1 0 2.249 2.249 0 0 1 1.39-2.08z" class="vector-2"/>
      <g class="group-2567" transform="translate(6.25 9.459)">
        <path d="M.75 0a.5.5 0 0 1 .469.674L1.182.75l.037.076c.01.027.018.055.023.084L1.25 1a.5.5 0 0 1-.5.5.75.75 0 1 1 0-1.5z" class="vector-3"/>
        <path d="M.75 0a.75.75 0 1 1 0 1.5.5.5 0 0 1-.469-.674L.317.75.281.674A.496.496 0 0 1 .258.59L.25.5a.5.5 0 0 1 .5-.5z" class="vector-4"/>
      </g>
    </g>
  </g>
</svg>
