<svg xmlns="http://www.w3.org/2000/svg" width="14" height="15" viewBox="0 0 14 15">
  <g fill="none" fill-rule="evenodd" class="page-1">
    <g fill="#000" fill-rule="nonzero" class="pencil" transform="translate(0 .5)">
      <path d="M10.718 0a1.501 1.501 0 0 0-1.072.451L1.408 8.646a.5.5 0 0 0-.129.22L.02 13.364a.5.5 0 0 0 .617.616l4.5-1.26a.5.5 0 0 0 .22-.129l8.202-8.239a1.497 1.497 0 0 0-.002-2.127L11.788.448A1.495 1.495 0 0 0 10.718 0zm0 1a.5.5 0 0 1 .358.15l1.773 1.783a.506.506 0 0 1 .112.55l-.029.059a.5.5 0 0 1-.08.104L4.74 11.794l-3.52.985.986-3.518 8.15-8.106A.51.51 0 0 1 10.718 1z" class="path"/>
    </g>
  </g>
</svg>
