<svg xmlns="http://www.w3.org/2000/svg" width="15" height="14" viewBox="0 0 15 14">
  <g fill="none" fill-rule="evenodd" class="page-1">
    <g fill="#000" fill-rule="nonzero" class="txp">
      <path d="M3.352.578L.698 3.232a.817.817 0 0 0 0 1.156l1.447 1.447a.817.817 0 0 0 1.156 0l2.654-2.654a.817.817 0 0 0 0-1.156L4.508.578a.817.817 0 0 0-1.156 0zm.578.578l1.448 1.447-2.655 2.655L1.276 3.81 3.93 1.156z" class="rectangle"/>
      <path d="M4.098 3.89a.426.426 0 0 1 .536-.07l.058.047 7.7 7.492a.42.42 0 0 1-.008.593.426.426 0 0 1-.536.07l-.057-.046-7.7-7.493a.42.42 0 0 1 .007-.593z" class="line"/>
      <path d="M11.685 2.448l-1.086-1.085a.817.817 0 0 0-1.263.133L7.345 4.574c-.478.74.39 1.608 1.13 1.13l3.077-1.991a.817.817 0 0 0 .134-1.264zm-.578.578L8.03 5.017l1.99-3.077 1.086 1.086z" class="rectangle"/>
      <path d="M8.363 4.845c.174.175.218.423.113.589l-.046.057-6.535 6.535c-.16.16-.45.13-.646-.067-.175-.176-.218-.424-.114-.588l.047-.058 6.535-6.535c.16-.16.448-.13.646.067z" class="line"/>
    </g>
  </g>
</svg>
